<svg xmlns="http://www.w3.org/2000/svg" viewBox="0 0 500 500" width="500" height="500" preserveAspectRatio="xMidYMid slice" style="width: 100%; height: 100%; transform: translate3d(0px, 0px, 0px);"><defs><clipPath id="__lottie_element_10703"><rect width="500" height="500" x="0" y="0"></rect></clipPath><clipPath id="__lottie_element_10705"><path d="M0,0 L500,0 L500,500 L0,500z"></path></clipPath></defs><g clip-path="url(#__lottie_element_10703)"><g clip-path="url(#__lottie_element_10705)" transform="matrix(0.5,0,0,0.5,123.05999755859375,136.37600708007812)" opacity="1" style="display: block;"><g transform="matrix(2.5510199069976807,0,0,2.5510199069976807,250,265.3059997558594)" opacity="1" style="display: block;"><g opacity="1" transform="matrix(0.9800000190734863,0,0,0.9800000190734863,0,0)"><path fill="rgb(255,255,255)" fill-opacity="1" d=" M0,-104 C54.124000549316406,-104 98,-60.124000549316406 98,-6 C98,48.124000549316406 54.124000549316406,92 0,92 C-54.124000549316406,92 -98,48.124000549316406 -98,-6 C-98,-60.124000549316406 -54.124000549316406,-104 0,-104z"></path><path stroke-linecap="butt" stroke-linejoin="miter" fill-opacity="0" stroke-miterlimit="4" stroke="rgb(14,19,24)" stroke-opacity="0.07" stroke-width="4" d=" M0,-104 C54.124000549316406,-104 98,-60.124000549316406 98,-6 C98,48.124000549316406 54.124000549316406,92 0,92 C-54.124000549316406,92 -98,48.124000549316406 -98,-6 C-98,-60.124000549316406 -54.124000549316406,-104 0,-104z"></path></g><g opacity="1" transform="matrix(1,0,0,1,0,0)"><path fill="rgb(255,59,75)" fill-opacity="1" d=" M53.01300048828125,-14.159000396728516 C53.01300048828125,3.0450000762939453 53.01300048828125,11.64799976348877 48.88399887084961,17.82699966430664 C47.09600067138672,20.50200080871582 44.79899978637695,22.798999786376953 42.124000549316406,24.586999893188477 C36.60499954223633,28.27400016784668 29.15399932861328,28.66900062561035 15.366999626159668,28.711000442504883 C15.366999626159668,28.711000442504883 6.97599983215332,43.0359992980957 6.97599983215332,43.0359992980957 C3.822000026702881,48.42100143432617 -3.9630000591278076,48.42100143432617 -7.117000102996826,43.0359992980957 C-7.117000102996826,43.0359992980957 -15.508000373840332,28.711000442504883 -15.508000373840332,28.711000442504883 C-29.29400062561035,28.66900062561035 -36.74599838256836,28.27400016784668 -42.26499938964844,24.586999893188477 C-44.939998626708984,22.798999786376953 -47.23699951171875,20.50200080871582 -49.025001525878906,17.82699966430664 C-53.15399932861328,11.64799976348877 -53.15399932861328,3.0450000762939453 -53.15399932861328,-14.159000396728516 C-53.15399932861328,-31.36400032043457 -53.15399932861328,-39.965999603271484 -49.025001525878906,-46.145999908447266 C-47.23699951171875,-48.82099914550781 -44.939998626708984,-51.117000579833984 -42.26499938964844,-52.904998779296875 C-36.084999084472656,-57.034000396728516 -27.482999801635742,-57.034000396728516 -10.279000282287598,-57.034000396728516 C-10.279000282287598,-57.034000396728516 10.137999534606934,-57.034000396728516 10.137999534606934,-57.034000396728516 C27.343000411987305,-57.034000396728516 35.94499969482422,-57.034000396728516 42.124000549316406,-52.904998779296875 C44.79899978637695,-51.117000579833984 47.09600067138672,-48.82099914550781 48.88399887084961,-46.145999908447266 C53.01300048828125,-39.96699905395508 53.01300048828125,-31.36400032043457 53.01300048828125,-14.159000396728516z M23.214000701904297,-11.27299976348877 C24.05900001525879,-12.539999961853027 24.76300048828125,-13.947999954223633 25.184999465942383,-15.355999946594238 C25.466999053955078,-16.48200035095215 25.749000549316406,-17.75 25.607999801635742,-19.017000198364258 C25.607999801635742,-26.479999542236328 19.55299949645996,-32.534000396728516 12.09000015258789,-32.534000396728516 C6.739999771118164,-32.534000396728516 2.0929999351501465,-29.29599952697754 -0.01899999938905239,-24.790000915527344 C-0.01899999938905239,-24.790000915527344 -0.1599999964237213,-24.790000915527344 -0.1599999964237213,-24.790000915527344 C-2.2720000743865967,-29.29599952697754 -6.918000221252441,-32.534000396728516 -12.269000053405762,-32.534000396728516 C-15.930000305175781,-32.534000396728516 -19.167999267578125,-31.125999450683594 -21.562000274658203,-28.73200035095215 C-23.533000946044922,-26.76099967956543 -24.94099998474121,-24.226999282836914 -25.503999710083008,-21.270000457763672 C-25.645000457763672,-20.56599998474121 -25.785999298095703,-19.86199951171875 -25.785999298095703,-19.017000198364258 C-25.785999298095703,-17.75 -25.503999710083008,-16.48200035095215 -25.082000732421875,-15.21500015258789 C-24.65999984741211,-13.666000366210938 -23.95599937438965,-12.258000373840332 -22.969999313354492,-10.991000175476074 C-22.969999313354492,-10.991000175476074 -22.82900047302246,-10.850000381469727 -22.82900047302246,-10.850000381469727 C-22.82900047302246,-10.850000381469727 -22.82900047302246,-10.708999633789062 -22.82900047302246,-10.708999633789062 C-22.547000885009766,-10.286999702453613 -22.125,-9.723999977111816 -21.562000274658203,-9.020000457763672 C-19.027000427246094,-5.639999866485596 -13.53600025177002,0.414000004529953 -2.8350000381469727,8.298999786376953 C-2.8350000381469727,8.298999786376953 2.937999963760376,8.298999786376953 2.937999963760376,8.298999786376953 C16.73699951171875,-1.8389999866485596 21.94700050354004,-9.020000457763672 23.214000701904297,-11.27299976348877z"></path></g></g></g></g></svg>